<svg xmlns="http://www.w3.org/2000/svg" viewBox="0 0 198.91 226"><path fill="#fff" stroke-width="0" d="M101.48 107.91c-5.22.22-8.99 2.99-11.93 7.17-1.13 1.61-2.03 3.41-3.26 4.95-3.64 4.55-9.61 4.21-12.41-.9-2.53-4.61-5.5-8.64-10.34-10.95-1.11-.53-2.39-.72-3.59-1.07-.17.3-.34.6-.5.91.81.91 1.62 1.81 2.42 2.72 7.12 8.09 6.68 18.22-1.75 24.88-9.03 7.12-18.49 13.7-27.88 20.35-.78.55-2.66.24-3.68-.32-11.21-6.16-17.56-16.33-22.34-27.69C1.24 116.09.55 103.54.42 90.92.26 74.16.08 57.41 0 40.65c-.05-9.15 4.43-15.37 11.76-16.69C18.64 22.72 26.08 27.1 28.15 34c.86 2.84 1.17 5.94 1.19 8.93.1 14.66-.05 29.32.04 43.98.02 3.08-.69 5.05-3.74 6.52-4.27 2.07-8.28 4.74-12.24 7.38-4.89 3.26-5.04 4.78-1.73 9.92 7.25-3.94 14.19-8.6 21.77-11.7 38.37-15.69 74.97-12.93 109.18 11.58.38.27.72.6 1.12.82 6.18 3.45 6.15 3.45 5.43 10.53-1.03 10.18-3.12 20.04-9.06 28.64-1.37 1.98-3.09 3.8-4.94 5.35-4.54 3.79-7.34 3.69-11.98-.03-6.97-5.6-14.11-11.01-20.87-16.86-2.83-2.45-5.47-5.5-7.14-8.82-3.3-6.54-1.6-13.43 3.7-18.46 1.06-1 2.12-2 3.17-3-.2-.29-.4-.58-.6-.88Zm-40.7 13.37c.22-3.51-1.11-5.81-4.43-7.35-5.6-2.6-10.89-1.94-15.66 1.94-3.71 3.02-5.02 6.24-4.07 9.24 8.79-11.07 12.23-11.62 24.16-3.83Zm62 7.05c.27-6.09-2.54-9.44-6.85-11.85-4.66-2.61-9.31-2.73-13.77.44-2.78 1.97-3.43 3.88-2.64 6.89 9.27-8.61 13.85-7.84 23.27 4.53Zm-79.14-8.54c-3.65 3.14-4.72 7.15-2.73 10.23 2.74 4.24 8.37 5.54 13.31 3.07 3.81-1.91 5.14-4.8 3.85-8.36-4.31 5.9-6.9 7.22-11.13 5.66-3.66-1.35-4.18-3.02-3.29-10.59Zm72.81 3.34c.96 5.5 0 8.69-2.91 9.62-6.42 2.05-9-1.95-10.4-7.86-2.18 4.81-1.3 7.65 2.59 10.17 3.84 2.49 9.59 1.89 12.15-1.27 2.56-3.16 2.22-6.63-1.42-10.67Zm8.46 29.77c.21-.37.42-.73.64-1.1-4.42-2.85-8.84-5.7-13.25-8.54-.22.34-.44.69-.66 1.03 4.43 2.87 8.85 5.74 13.28 8.61Zm-91.16-3.45.54 1.11 10.8-5.28c-.16-.32-.31-.65-.47-.97l-10.87 5.15Zm76.76-28.54c-1.52 1.22-2.66 1.76-3.09 2.64-.25.52.62 1.59.98 2.42 1.02-.49 2.26-.79 2.97-1.56.33-.36-.37-1.66-.86-3.49Zm-57.31-1.15c-1.49.86-2.78 1.19-3.11 1.93-.28.64.54 1.77.88 2.68.97-.4 2.21-.56 2.8-1.27.37-.45-.25-1.71-.57-3.34ZM87.67 225.83c.66-10.57 4.59-19.21 10.89-26.82 12.48-15.06 28.28-25.8 45.57-34.55 9.68-4.9 19.61-9.17 30.33-11.33 5.35-1.08 10.61-1.17 15.75 1.08 5.47 2.39 8.74 7.24 8.71 13.13-.03 5.51-2.86 9.4-8.95 11.54-5.7 2-11.61 3.44-17.3 5.47-12.33 4.39-22.97 11.67-33.09 19.82-8.34 6.72-16.77 13.32-26.88 17.34-7.9 3.14-16.09 4.28-25.03 4.32Z"/><path fill="#fff" stroke-width="0" d="M71.45 225.27c-.11-5.14.11-10.04-.39-14.86-1.21-11.61-7.32-20.92-14.59-29.6-1.19-1.43-2.5-2.76-3.73-4.16-7.29-8.26-7.34-16.71.08-24.94 9.31-10.33 20.97-13.22 34.28-10.26 8.46 1.88 15.49 6.19 21.02 12.89 6.98 8.46 6.51 18.1-1.5 25.47-6.76 6.21-13.8 12.05-18.98 19.85-4.43 6.67-7 13.87-8.15 21.69-.73 5-.75 5-5.85 4.34-.68-.09-1.35-.25-2.2-.42Zm-6-40.81c1.97 2.82 3.53 5.44 7.39 5.28 3.45-.14 6.93-.06 10.38.18 3.72.27 6.14-1.38 7.94-4.42-8.45-4.94-16.29-5.3-25.71-1.05Zm27.68-14.83c.14.35.29.71.43 1.06 1.94-.03 4.26.62 5.73-.23 3.02-1.74 1.81-6.5-1.81-8.03-4.35-1.83-12.03 1.58-13.33 6.14-.31 1.1.05 3.04.84 3.65.94.73 2.85.93 4 .49 1.55-.59 2.77-2.02 4.13-3.09Zm-24.19-9.2c-2.39.11-4.63-.18-6.62.39-2.45.7-3.86 4.29-2.44 6.33.76 1.09 3.29 2.24 4.08 1.78 2.5-1.47 3.75-.64 5.12 1.35 1.34 1.95 3.53 2.53 5.04.87.9-.99 1.1-3.65.39-4.82-1.32-2.18-3.52-3.83-5.56-5.9ZM146.2 101.38c-8.99-4.44-17.45-8.79-26.06-12.79-4.96-2.3-4.95-2.04-4.86-7.66.28-17.1.33-34.2.78-51.3.1-3.71.69-7.81 2.44-10.98 3.19-5.78 9.82-7.79 16.06-5.98 7.66 2.22 12.28 7.73 12.28 15.44 0 15-.29 30.01-.44 45.01-.09 9.52-.13 19.04-.2 28.26ZM76.64 80.49c-.03-6.92-.1-14.21-.08-21.5.04-13.72.16-27.43.18-41.15 0-6.18.95-11.78 6.8-15.44 9.39-5.88 22.07-.41 23.63 10.57.6 4.22.27 8.58.21 12.87-.24 17.78-.54 35.57-.83 53.35-.03 1.71-.2 3.43-.29 4.83-9.9-1.18-19.53-2.33-29.63-3.53ZM38.23 87.19c-.09-14.89-.18-29.76-.25-44.63-.04-6.98-.16-13.95-.03-20.92.15-8.29 5.3-13.65 13.3-14.15 8.14-.51 15.38 4.79 16.35 12.52.59 4.7.38 9.51.36 14.26-.08 14.3-.3 28.6-.32 42.89 0 2.93-.8 4.17-3.94 4.71-8.33 1.44-16.56 3.42-25.46 5.31ZM2.68 142.12c7.15 14.38 20.59 21.01 32.4 29.51 12.97 9.33 23.24 20.74 27.01 36.85 1.12 4.78 1.34 9.6.13 14.45-28.25-7.45-62.09-32.14-59.54-80.81Z"/></svg>